<svg width="40.000000" height="40.000000" viewBox="0 0 40 40" fill="none" xmlns="http://www.w3.org/2000/svg" xmlns:xlink="http://www.w3.org/1999/xlink">
	<desc>
			Created with Pixso.
	</desc>
	<defs>
		<clipPath id="clip1_1012">
			<rect id="SVG" rx="0.000000" width="19.000000" height="17.000000" transform="translate(10.500000 11.500000)" fill="white" fill-opacity="0"/>
		</clipPath>
	</defs>
	<g clip-path="url(#clip1_1012)">
		<path id="Vector" d="M29.48 17.25C29.22 16.93 28.83 16.74 28.41 16.74L24.6 16.74L22.53 12.01C22.4 11.72 22.06 11.58 21.77 11.71C21.47 11.84 21.34 12.18 21.47 12.47L23.33 16.74L16.44 16.74L18.3 12.47C18.43 12.18 18.29 11.84 18 11.71C17.71 11.58 17.37 11.72 17.24 12.01L15.17 16.74L11.36 16.74C10.94 16.74 10.55 16.93 10.29 17.25C10.03 17.58 9.94 17.99 10.03 18.39L12.06 27.27C12.21 27.9 12.75 28.33 13.4 28.33L26.37 28.33C27.01 28.33 27.56 27.9 27.71 27.27L29.74 18.39C29.83 17.99 29.74 17.58 29.48 17.25ZM26.37 27.17L13.4 27.17C13.3 27.17 13.21 27.1 13.19 27.02L11.16 18.13C11.14 18.06 11.17 18.01 11.2 17.98C11.22 17.95 11.27 17.9 11.36 17.9L14.67 17.9L14.52 18.25C14.39 18.54 14.52 18.88 14.81 19.01C14.89 19.04 14.97 19.06 15.05 19.06C15.27 19.06 15.48 18.93 15.58 18.71L15.93 17.9L23.84 17.9L24.19 18.71C24.29 18.93 24.5 19.06 24.72 19.06C24.8 19.06 24.88 19.04 24.95 19.01C25.25 18.88 25.38 18.54 25.25 18.25L25.1 17.9L28.41 17.9C28.5 17.9 28.55 17.95 28.57 17.98C28.6 18.01 28.63 18.06 28.61 18.13L26.58 27.02C26.56 27.1 26.47 27.17 26.37 27.17Z" fill="#7F7E97" fill-opacity="1.000000" fill-rule="nonzero"/>
		<path id="Vector" d="M16.41 20.41C16.09 20.41 15.83 20.67 15.83 20.99L15.83 25.24C15.83 25.56 16.09 25.82 16.41 25.82C16.73 25.82 16.99 25.56 16.99 25.24L16.99 20.99C16.99 20.67 16.73 20.41 16.41 20.41Z" fill="#7F7E97" fill-opacity="1.000000" fill-rule="nonzero"/>
		<path id="Vector" d="M19.88 20.41C19.56 20.41 19.31 20.67 19.31 20.99L19.31 25.24C19.31 25.56 19.56 25.82 19.88 25.82C20.2 25.82 20.46 25.56 20.46 25.24L20.46 20.99C20.46 20.67 20.2 20.41 19.88 20.41Z" fill="#7F7E97" fill-opacity="1.000000" fill-rule="nonzero"/>
		<path id="Vector" d="M23.36 20.41C23.04 20.41 22.78 20.67 22.78 20.99L22.78 25.24C22.78 25.56 23.04 25.82 23.36 25.82C23.68 25.82 23.94 25.56 23.94 25.24L23.94 20.99C23.94 20.67 23.68 20.41 23.36 20.41Z" fill="#7F7E97" fill-opacity="1.000000" fill-rule="nonzero"/>
	</g>
	<rect id="Header" rx="19.500000" width="39.000000" height="39.000000" transform="translate(0.500000 0.500000)" stroke="#7F7E97" stroke-opacity="1.000000" stroke-width="1.000000"/>
</svg>
