<svg width="9.333374" height="5.226685" viewBox="0 0 9.33337 5.22668" fill="none" xmlns="http://www.w3.org/2000/svg" xmlns:xlink="http://www.w3.org/1999/xlink">
	<desc>
			Created with Pixso.
	</desc>
	<defs/>
	<path id="Vector" d="M0 0.6C0 0.48 0.03 0.36 0.09 0.25C0.15 0.14 0.24 0.07 0.34 0.04C0.45 0.01 0.57 0 0.69 0.02C0.82 0.03 0.91 0.09 0.97 0.18L4.66 3.82L8.35 0.18C8.44 0.06 8.57 0 8.75 0C8.92 0 9.06 0.05 9.17 0.16C9.27 0.27 9.33 0.41 9.33 0.58C9.33 0.75 9.27 0.88 9.14 0.97L5.08 5.08C4.96 5.18 4.82 5.22 4.66 5.22C4.51 5.22 4.37 5.18 4.24 5.08L0.18 0.97C0.06 0.88 0 0.74 0 0.56L0 0.6Z" fill="#161439" fill-opacity="1.000000" fill-rule="nonzero"/>
</svg>
