<svg width="40.000000" height="40.000000" viewBox="0 0 40 40" fill="none" xmlns="http://www.w3.org/2000/svg" xmlns:xlink="http://www.w3.org/1999/xlink">
	<desc>
			Created with Pixso.
	</desc>
	<defs>
		<clipPath id="clip1_1007">
			<rect id="SVG" rx="0.000000" width="21.000000" height="21.000000" transform="translate(9.500000 9.500000)" fill="white" fill-opacity="0"/>
		</clipPath>
	</defs>
	<g clip-path="url(#clip1_1007)">
		<path id="Vector" d="M19.75 13.61L18.79 12.62C16.52 10.29 12.37 11.09 10.88 14.02C10.17 15.39 10.02 17.38 11.3 19.91C12.54 22.35 15.11 25.27 19.75 28.46C24.39 25.27 26.96 22.35 28.2 19.91C29.49 17.38 29.33 15.39 28.62 14.02C27.13 11.09 22.98 10.29 20.71 12.61L19.75 13.61ZM19.75 30.08C-0.86 16.46 13.4 5.82 19.51 11.45C19.59 11.52 19.67 11.6 19.75 11.68C19.83 11.6 19.91 11.52 19.99 11.45C26.1 5.82 40.36 16.46 19.75 30.08Z" fill="#7F7E97" fill-opacity="1.000000" fill-rule="nonzero"/>
	</g>
	<rect id="Header" rx="19.500000" width="39.000000" height="39.000000" transform="translate(0.500000 0.500000)" stroke="#7F7E97" stroke-opacity="1.000000" stroke-width="1.000000"/>
</svg>
