<svg width="23.797852" height="22.773315" viewBox="0 0 23.7979 22.7733" fill="none" xmlns="http://www.w3.org/2000/svg" xmlns:xlink="http://www.w3.org/1999/xlink">
	<desc>
			Created with Pixso.
	</desc>
	<defs/>
	<path id="Vector" d="M23.5 21.28L18.82 16.79C19.6 15.86 20.22 14.84 20.67 13.72C21.13 12.6 21.35 11.41 21.35 10.17C21.35 8.36 20.87 6.68 19.89 5.13C18.92 3.57 17.62 2.33 15.99 1.4C14.36 0.46 12.59 0 10.67 0C8.76 0 6.98 0.46 5.36 1.4C3.73 2.33 2.43 3.57 1.46 5.13C0.48 6.68 0 8.38 0 10.22C0 12.05 0.48 13.75 1.46 15.3C2.43 16.86 3.73 18.1 5.36 19.04C6.98 19.97 8.77 20.43 10.72 20.43C11.96 20.43 13.16 20.22 14.33 19.78C15.5 19.35 16.58 18.76 17.55 18.01L22.23 22.49C22.43 22.67 22.64 22.77 22.87 22.77C23.09 22.77 23.31 22.67 23.5 22.49C23.7 22.3 23.79 22.1 23.79 21.88C23.79 21.66 23.7 21.46 23.5 21.28ZM10.72 18.66C9.1 18.66 7.6 18.29 6.24 17.54C4.87 16.79 3.8 15.77 3.02 14.46C2.24 13.16 1.85 11.74 1.85 10.22C1.85 8.69 2.24 7.28 3.02 5.97C3.8 4.66 4.87 3.64 6.24 2.89C7.6 2.14 9.08 1.77 10.67 1.77C12.27 1.77 13.75 2.14 15.11 2.89C16.48 3.64 17.55 4.66 18.33 5.97C19.11 7.28 19.5 8.69 19.5 10.22C19.5 11.74 19.11 13.16 18.33 14.46C17.55 15.77 16.48 16.79 15.11 17.54C13.75 18.29 12.28 18.66 10.72 18.66Z" fill="#FFFFFF" fill-opacity="1.000000" fill-rule="nonzero"/>
</svg>
