<svg width="22.000000" height="26.000000" viewBox="0 0 22 26" fill="none" xmlns="http://www.w3.org/2000/svg" xmlns:xlink="http://www.w3.org/1999/xlink">
	<desc>
			Created with Pixso.
	</desc>
	<defs/>
	<path id="Vector" d="M20.12 22.74C19 24.36 17.81 25.93 15.99 25.95C14.17 25.99 13.59 24.93 11.53 24.93C9.45 24.93 8.82 25.93 7.09 25.99C5.32 26.06 3.98 24.28 2.84 22.7C0.52 19.49 -1.26 13.58 1.13 9.6C2.31 7.63 4.42 6.38 6.71 6.34C8.45 6.31 10.1 7.47 11.18 7.47C12.23 7.47 14.24 6.08 16.34 6.29C17.22 6.33 19.69 6.62 21.28 8.86C21.15 8.94 18.33 10.52 18.36 13.81C18.4 17.74 21.95 19.05 22 19.06C21.95 19.16 21.43 20.94 20.12 22.74ZM12.38 1.94C13.37 0.87 15.01 0.05 16.37 0C16.54 1.52 15.91 3.05 14.96 4.14C14.02 5.25 12.48 6.1 10.96 5.99C10.75 4.49 11.51 2.93 12.38 1.94Z" fill="#FFFFFF" fill-opacity="1.000000" fill-rule="nonzero"/>
</svg>
