<svg width="16.846191" height="17.969238" viewBox="0 0 16.8462 17.9692" fill="none" xmlns="http://www.w3.org/2000/svg" xmlns:xlink="http://www.w3.org/1999/xlink">
	<desc>
			Created with Pixso.
	</desc>
	<defs/>
	<path id="Vector" d="M0 16.73L0 1.23C0 0.69 0.32 0.21 0.79 0L10.14 8.98L0.79 17.96C0.32 17.74 0 17.27 0 16.73ZM13.1 11.83L2.89 17.5L10.95 9.76L13.1 11.83ZM16.28 7.89C16.6 8.14 16.84 8.52 16.84 8.98C16.84 9.44 16.63 9.8 16.3 10.06L14.13 11.26L11.75 8.98L14.13 6.7L16.28 7.89ZM2.89 0.46L13.1 6.13L10.95 8.2L2.89 0.46Z" fill="#FFFFFF" fill-opacity="1.000000" fill-rule="nonzero"/>
</svg>
