<svg width="12.250000" height="12.222656" viewBox="0 0 12.25 12.2227" fill="none" xmlns="http://www.w3.org/2000/svg" xmlns:xlink="http://www.w3.org/1999/xlink">
	<desc>
			Created with Pixso.
	</desc>
	<defs/>
	<path id="Symbol" d="M0 1.44C0 2.26 0.65 2.95 1.44 2.95C2.26 2.95 2.92 2.26 2.92 1.44C2.92 0.65 2.26 0 1.44 0C0.65 0 0 0.65 0 1.44ZM9.7 12.22L12.25 12.22L12.25 7.73C12.25 5.55 11.75 3.85 9.18 3.85C7.95 3.85 7.13 4.53 6.78 5.16L6.75 5.16L6.75 4.04L4.32 4.04L4.32 12.22L6.86 12.22L6.86 8.17C6.86 7.1 7.05 6.09 8.36 6.09C9.67 6.09 9.7 7.3 9.7 8.25L9.7 12.22ZM0.19 12.22L2.73 12.22L2.73 4.04L0.19 4.04L0.19 12.22Z" fill="#E7EFFC" fill-opacity="1.000000" fill-rule="evenodd"/>
</svg>
