<svg width="12.250000" height="12.250000" viewBox="0 0 12.25 12.25" fill="none" xmlns="http://www.w3.org/2000/svg" xmlns:xlink="http://www.w3.org/1999/xlink">
	<desc>
			Created with Pixso.
	</desc>
	<defs/>
	<path id="Symbol" d="M12.25 6.09C12.25 4.45 11.53 2.95 10.39 1.8C9.26 0.65 7.73 0 6.09 0C2.76 0 0.02 2.73 0.02 6.07C0.02 7.16 0.32 8.2 0.84 9.1L0 12.25L3.19 11.42C4.1 11.89 5.08 12.16 6.09 12.16C9.46 12.16 12.25 9.43 12.25 6.09ZM11.21 6.09C11.21 8.85 8.88 11.12 6.09 11.12C5.19 11.12 4.32 10.88 3.52 10.41L3.36 10.3L1.44 10.82L1.96 8.96L1.83 8.77C1.33 7.95 1.06 7.02 1.06 6.07C1.06 3.3 3.33 1.03 6.12 1.03C7.46 1.03 8.72 1.55 9.67 2.51C10.63 3.47 11.21 4.73 11.21 6.09ZM9.16 7.54C9.13 7.46 9.02 7.43 8.88 7.35C8.72 7.27 7.98 6.91 7.84 6.86C7.71 6.8 7.6 6.78 7.49 6.94C7.41 7.08 7.1 7.43 7.02 7.54C6.91 7.62 6.83 7.65 6.69 7.57C5.79 7.13 5.22 6.78 4.62 5.76C4.53 5.61 4.58 5.55 4.7 5.44C4.8 5.34 4.93 5.2 5.05 4.94C5.11 4.83 5.08 4.75 5.05 4.67C5.03 4.59 4.7 3.85 4.59 3.55C4.46 3.27 4.36 3.27 4.26 3.28C4.25 3.28 4.24 3.28 4.23 3.28L3.96 3.28C3.85 3.28 3.69 3.3 3.55 3.47C3.41 3.63 3.03 3.99 3.03 4.73C3.03 5.49 3.55 6.2 3.63 6.31C3.71 6.39 4.7 7.92 6.23 8.58C7.19 9.02 7.57 9.05 8.06 8.96C8.33 8.94 8.94 8.61 9.07 8.25C9.21 7.9 9.21 7.6 9.16 7.54Z" fill="#E7EFFC" fill-opacity="1.000000" fill-rule="evenodd"/>
</svg>
