<svg width="13.972656" height="11.347656" viewBox="0 0 13.9727 11.3477" fill="none" xmlns="http://www.w3.org/2000/svg" xmlns:xlink="http://www.w3.org/1999/xlink">
	<desc>
			Created with Pixso.
	</desc>
	<defs/>
	<path id="Symbol" d="M12.55 3.19L12.55 2.81C13.09 2.4 13.58 1.91 13.97 1.33C13.48 1.55 12.9 1.72 12.33 1.77C12.93 1.42 13.37 0.87 13.58 0.19C13.04 0.51 12.41 0.76 11.78 0.9C11.23 0.32 10.5 0 9.67 0C8.09 0 6.8 1.28 6.8 2.87Q6.8 3.19 6.89 3.52C4.51 3.39 2.37 2.24 0.95 0.51C0.71 0.92 0.57 1.42 0.57 1.96C0.57 2.95 1.06 3.82 1.85 4.34C1.39 4.32 0.92 4.21 0.54 3.99L0.54 4.01C0.54 5.41 1.53 6.56 2.84 6.83C2.62 6.89 2.35 6.94 2.1 6.94C1.91 6.94 1.75 6.91 1.55 6.89C1.91 8.03 2.98 8.85 4.23 8.88C3.25 9.65 2.02 10.11 0.68 10.11C0.43 10.11 0.21 10.08 0 10.06C1.25 10.88 2.76 11.34 4.4 11.34C9.67 11.34 12.55 7 12.55 3.19Z" fill="#E7EFFC" fill-opacity="1.000000" fill-rule="evenodd"/>
</svg>
