<svg width="14.957031" height="10.500000" viewBox="0 0 14.957 10.5" fill="none" xmlns="http://www.w3.org/2000/svg" xmlns:xlink="http://www.w3.org/1999/xlink">
	<desc>
			Created with Pixso.
	</desc>
	<defs/>
	<path id="Symbol" d="M14.95 5.27C14.95 5.27 14.95 2.81 14.62 1.66C14.46 1.01 13.94 0.49 13.31 0.32C12.14 0 7.49 0 7.49 0C7.49 0 2.81 0 1.64 0.32C1.01 0.49 0.49 1.01 0.32 1.66C0 2.81 0 5.27 0 5.27C0 5.27 0 7.71 0.32 8.88C0.49 9.54 1.01 10.03 1.64 10.19C2.81 10.5 7.49 10.5 7.49 10.5C7.49 10.5 12.14 10.5 13.31 10.19C13.94 10.03 14.46 9.54 14.62 8.88C14.95 7.71 14.95 5.27 14.95 5.27ZM9.84 5.27L5.96 7.49L5.96 3.06L9.84 5.27Z" fill="#E7EFFC" fill-opacity="1.000000" fill-rule="evenodd"/>
</svg>
